PathFileType	4	(X/Y/Z)	C:\Users\Basilio\Documents\Thesis Gigler\squatting_fais\c3dfiles\044\SJ_pre2\markers_experimental.trc
DataRate	CameraRate	NumFrames	NumMarkers	Units	OrigDataRate	OrigDataStartFrame	OrigNumFrames
200.000000	200.000000	4	62	mm	200.000000	1281	1708
Frame#	Time	FHD			LBHD			RBHD			C7			T10			CLAV			LSHO			LUUPA			LMUPA			LDUPA			LLEP			LMEP			LRAD			LUL			LRFIN			RSHO			RUPA1			RMUPA			RDUPA			RLEP			RMEP			RRAD			RUL			RUFIN			LASI			RASI			USACR			LSACR			LTHI1			LTHI2			LTHI3			LTHI4			LLFC			LMFC			LTIB1			LTIB2			LTIB3			LTIB4			LLMAL			LMMAL			LHEE			LMT1			LMT2			LMT5			RTHI			RTHI2			RTHI3			RTHI4			RLFC			RMFC			RTIB1			RTIB2			RTIB3			RTIB4			RLMAL			RMMAL			RHEE			RMT1			RMT2			RMT5			RSACR			*61			
		X1	Y1	Z1	X2	Y2	Z2	X3	Y3	Z3	X4	Y4	Z4	X5	Y5	Z5	X6	Y6	Z6	X7	Y7	Z7	X8	Y8	Z8	X9	Y9	Z9	X10	Y10	Z10	X11	Y11	Z11	X12	Y12	Z12	X13	Y13	Z13	X14	Y14	Z14	X15	Y15	Z15	X16	Y16	Z16	X17	Y17	Z17	X18	Y18	Z18	X19	Y19	Z19	X20	Y20	Z20	X21	Y21	Z21	X22	Y22	Z22	X23	Y23	Z23	X24	Y24	Z24	X25	Y25	Z25	X26	Y26	Z26	X27	Y27	Z27	X28	Y28	Z28	X29	Y29	Z29	X30	Y30	Z30	X31	Y31	Z31	X32	Y32	Z32	X33	Y33	Z33	X34	Y34	Z34	X35	Y35	Z35	X36	Y36	Z36	X37	Y37	Z37	X38	Y38	Z38	X39	Y39	Z39	X40	Y40	Z40	X41	Y41	Z41	X42	Y42	Z42	X43	Y43	Z43	X44	Y44	Z44	X45	Y45	Z45	X46	Y46	Z46	X47	Y47	Z47	X48	Y48	Z48	X49	Y49	Z49	X50	Y50	Z50	X51	Y51	Z51	X52	Y52	Z52	X53	Y53	Z53	X54	Y54	Z54	X55	Y55	Z55	X56	Y56	Z56	X57	Y57	Z57	X58	Y58	Z58	X59	Y59	Z59	X60	Y60	Z60	X61	Y61	Z61	X62	Y62	Z62	

1282	6.405	-442.8545837402345	2085.18505859375	-945.7378540039065	-502.5330200195314	1972.998657226563	-1034.144165039063	-544.2581176757814	1924.282958984375	-875.5527954101565	-509.1200561523439	1805.897338867188	-955.993103027344	-460.3329162597657	1503.914184570313	-951.5137329101565	-359.0459594726563	1811.612426757813	-936.8231201171877	-379.3777465820313	1844.470092773438	-1111.272216796875	-358.5669555664063	1660.06201171875	-1264.13037109375	-328.6815490722657	1626.755737304688	-1240.622314453125	-348.5889892578126	1596.445922851563	-1289.853515625	-336.6839294433594	1538.545532226563	-1298.401611328125	-417.0571289062501	1527.794189453125	-1278.309814453125	-334.4902343750001	1291.100830078125	-1152.440185546875	-280.2015380859376	1282.32763671875	-1194.425903320313	-288.6681823730469	1305.3173828125	-1102.145874023438	-423.0578918457032	1812.347778320313	-753.0409545898439	-447.0213317871095	1627.234130859375	-617.6890869140626	-408.9457092285157	1595.517333984375	-628.0088500976564	-441.7837524414064	1562.725463867188	-590.1580810546876	-428.578582763672	1500.529296875	-580.8120117187501	-503.1688232421876	1484.895874023438	-622.5177612304689	-383.7000732421876	1261.73681640625	-728.7038574218751	-350.5368041992188	1244.879760742188	-666.4412841796876	-314.0452270507813	1278.896118164063	-753.4415893554689	-264.0834960937501	1319.4697265625	-1045.529296875	-266.6033935546876	1300.287841796875	-829.860290527344	-426.4637145996095	1380.18994140625	-940.3051757812502	-431.744598388672	1348.71533203125	-967.5490722656252	-402.6995544433595	1097.501953125	-1138.068969726563	-380.9490051269532	1016.037353515625	-1148.00537109375	-333.7319641113282	1011.4541015625	-1144.893310546875	-415.5191345214845	966.8209228515627	-1136.65283203125	-418.2713012695314	805.902038574219	-1138.993530273438	-399.321990966797	785.268737792969	-1019.018005371094	-411.6747436523439	621.0501098632814	-1092.300415039063	-450.682586669922	587.9545288085939	-1164.15478515625	-416.314178466797	578.0040283203126	-1132.796752929688	-440.5403747558595	499.6918945312501	-1111.814086914063	-514.0268554687501	391.3109130859376	-1166.5615234375	-482.973358154297	387.7799682617189	-1085.104248046875	-576.6051635742189	370.1437988281251	-1116.0068359375	-379.8216857910157	285.8937377929688	-1107.1826171875	-379.2388000488282	289.0552978515626	-1153.898681640625	-426.0847473144532	278.7444763183594	-1194.966674804688	-400.2000732421876	1044.357543945313	-752.3357543945314	-366.2338562011719	985.6916503906252	-749.8589477539064	-333.6471557617188	983.339050292969	-754.2899169921876	-399.7866210937501	909.3088378906252	-765.9761962890626	-415.9825134277345	796.3935546875002	-773.8864746093752	-412.4142150878907	786.988952636719	-898.2755126953127	-388.5383300781251	663.0401611328126	-791.5230712890627	-472.6728515625001	603.8019409179689	-752.4336547851564	-430.8865661621095	591.0913085937501	-763.9028930664064	-424.0952148437501	538.0484008789064	-785.9731445312502	-510.6046447753907	391.4994506835939	-773.9153442382815	-482.4940185546876	393.1069946289064	-853.8231201171877	-571.9196166992189	377.8794250488282	-824.9759521484377	-383.3352966308594	282.8546447753907	-834.514587402344	-381.2638549804688	275.7829589843751	-798.9780883789065	-427.5335388183595	267.7311706542969	-752.0275878906251	-433.4028625488282	1352.235107421875	-910.226745605469	nan	nan	nan	
1283	6.41	-441.6123657226564	2078.02197265625	-945.3878173828127	-501.4743957519532	1966.776489257813	-1034.23974609375	-543.8778076171876	1917.989868164063	-875.3575439453127	-509.4295654296876	1799.3681640625	-956.221862792969	-461.661102294922	1497.424194335938	-952.130065917969	-359.3946838378907	1804.230224609375	-936.9952392578127	-379.5240173339844	1837.66259765625	-1111.344482421875	-359.2387695312501	1653.374145507813	-1264.66357421875	-328.1034545898438	1619.923828125	-1241.335571289063	-349.4005432128907	1589.783935546875	-1290.345581054688	-337.9890136718751	1532.054443359375	-1298.67333984375	-418.1065368652345	1521.307495117188	-1278.768920898438	-336.1384277343751	1284.506225585938	-1152.9619140625	-281.8367614746094	1275.740844726563	-1194.912109375	-290.2471923828126	1298.458984375	-1102.461303710938	-423.240203857422	1805.20654296875	-753.2191162109376	-447.6888427734376	1620.246337890625	-617.8728027343751	-410.087860107422	1588.16064453125	-627.9360961914064	-442.8771057128907	1555.552490234375	-590.2086181640626	-429.929168701172	1493.564453125	-580.9804077148439	-504.5648193359376	1478.13427734375	-622.8212280273439	-385.4105834960939	1254.908447265625	-729.3686523437501	-352.0436401367188	1237.982177734375	-666.9753417968751	-315.5397644042969	1271.993774414063	-753.8748168945314	-266.0140380859376	1312.408935546875	-1045.75732421875	-268.3163452148438	1293.327026367188	-830.626403808594	-427.843231201172	1373.65380859375	-940.8658447265627	-435.6452636718751	1342.49755859375	-967.7893676757815	-403.5541992187501	1090.275390625	-1138.674560546875	-381.4928588867188	1009.091796875	-1148.879638671875	-334.1485595703126	1004.665771484375	-1145.921752929688	-415.717010498047	959.6351318359377	-1137.53564453125	-417.6958618164064	798.3840332031252	-1140.447631835938	-398.205047607422	777.2801513671877	-1020.580810546875	-410.859100341797	613.6254272460939	-1093.880981445313	-450.1312561035157	580.1686401367189	-1165.812622070313	-415.6264038085939	570.8472290039064	-1134.37939453125	-439.379852294922	492.865936279297	-1113.488647460938	-512.8234252929689	383.7793273925782	-1168.420654296875	-481.8650207519532	380.3162536621094	-1087.2109375	-575.1973876953126	362.0219116210938	-1117.9228515625	-377.8212280273438	279.3472595214844	-1109.403198242188	-377.3962402343751	282.5359802246094	-1156.057739257813	-425.559539794922	272.9104614257813	-1197.265625	-400.8290100097657	1037.058837890625	-752.6865844726564	-366.8899841308594	978.669128417969	-749.7696533203126	-334.2879333496094	976.4228515625002	-754.2996215820314	-399.9156799316407	902.037292480469	-765.8765258789064	-415.6104125976564	789.0192871093752	-773.5731201171877	-412.2888793945314	779.5120849609377	-897.8601684570315	-387.7478942871095	655.8579101562501	-791.4527587890627	-472.0190734863282	596.5765991210939	-751.6514282226564	-430.3236083984376	583.7086181640626	-762.9533081054689	-423.3585510253907	530.7222900390626	-785.0454101562502	-510.0218505859376	383.9982299804688	-772.7435302734377	-481.8072204589845	385.8074035644532	-852.648376464844	-570.9812011718751	369.2976379394532	-823.8369750976565	-381.2616577148438	276.8872375488282	-832.7526855468752	-378.7617187500001	270.0556945800782	-797.1258544921877	-424.7589111328126	261.9184265136719	-749.9862060546876	-434.8510742187501	1345.29296875	-910.778015136719	nan	nan	nan	
1284	6.415	-439.4897766113282	2071.21875	-945.2460937500002	-500.5798950195314	1960.3955078125	-1034.118896484375	-543.3879394531251	1911.949584960938	-875.2775878906252	-509.5918273925782	1793.044921875	-956.408386230469	-463.1412353515626	1490.353759765625	-952.600280761719	-359.8086242675782	1796.526977539063	-937.1695556640627	-379.5224914550782	1830.375610351563	-1111.589111328125	-359.8092346191407	1646.555297851563	-1265.027709960938	-329.1033935546876	1612.807006835938	-1241.848388671875	-350.4558715820313	1582.680053710938	-1290.9375	-338.8215942382813	1525.154418945313	-1299.415893554688	-419.4049072265626	1514.906860351563	-1279.335327148438	-337.3051147460938	1277.375	-1153.439331054688	-282.8824768066407	1268.802368164063	-1195.4091796875	-291.7398681640626	1291.531982421875	-1102.86962890625	-423.4653625488282	1797.754516601563	-753.3384399414064	-448.5457458496095	1612.797241210938	-618.0024414062501	-411.187713623047	1580.893798828125	-628.5170288085939	-443.9866333007814	1548.197509765625	-590.4424438476564	-431.4568176269532	1486.214965820313	-580.9908447265626	-506.0684814453126	1470.8232421875	-623.0207519531251	-387.054168701172	1247.770263671875	-729.9472656250001	-353.6654968261719	1230.5751953125	-667.4899902343751	-316.9977722167969	1264.95263671875	-754.3617553710939	-267.5829467773438	1305.467163085938	-1046.333618164063	-269.7707824707032	1286.109375	-831.2329101562502	-429.4672241210939	1366.312622070313	-941.5457763671877	-434.9304199218751	1334.636474609375	-968.6932373046877	-404.4088439941407	1082.81494140625	-1139.080810546875	-382.1446228027344	1001.784912109375	-1149.835083007813	-334.9445190429688	997.2443847656252	-1146.667114257813	-416.151824951172	952.154724121094	-1138.481567382813	-417.1071777343751	790.9608154296877	-1141.87060546875	-397.8006286621095	769.645935058594	-1021.912109375	-409.7298278808595	606.1247558593751	-1095.5029296875	-448.8233337402345	573.0771484375001	-1167.450073242188	-414.109344482422	563.1099853515626	-1136.093017578125	-438.4194641113282	484.5855102539064	-1115.347290039063	-511.3092346191407	376.3019104003907	-1170.26953125	-480.8182067871095	372.4879760742188	-1088.943359375	-574.0567016601564	353.6958618164063	-1119.8466796875	-375.7610778808594	272.7643432617188	-1111.617309570313	-375.5616760253907	275.9551696777344	-1158.210205078125	-421.5589294433595	265.2225036621094	-1199.35595703125	-401.5475463867189	1029.410278320313	-753.1030883789064	-367.4090881347657	971.0068359375002	-749.6804199218751	-335.0271911621094	969.1582031250002	-754.0522460937501	-400.4037475585939	894.6463012695315	-765.8131713867189	-415.2705688476564	781.5417480468752	-773.0908813476565	-411.8831481933595	771.8254394531252	-897.4818115234377	-387.1459045410157	648.6263427734376	-790.7640380859377	-471.2918701171876	588.8409423828126	-750.6456298828126	-429.6980895996095	576.2785034179689	-762.0838623046876	-422.6362915039064	523.0574951171876	-784.1216430664065	-509.2260742187501	376.2157592773438	-771.6907348632815	-481.0806884765626	377.9580688476563	-851.4219970703127	-570.3012084960939	360.3266296386719	-822.3077392578127	-379.2305908203126	270.6372070312501	-830.882263183594	-376.8521423339844	263.8807067871094	-795.4819946289065	-422.5943298339845	255.5654754638672	-747.9882812500001	-436.212371826172	1338.09716796875	-911.2851562500002	nan	nan	nan	
1285	6.42	-437.846649169922	2063.8544921875	-944.8164672851565	-500.3724975585939	1953.704833984375	-1033.583374023438	-542.8374023437501	1905.399291992188	-875.0919189453127	-509.876190185547	1786.042236328125	-956.565856933594	-464.218475341797	1483.283569335938	-953.2014770507815	-359.7166442871094	1789.06640625	-937.1778564453127	-379.1775817871094	1822.661010742188	-1111.5966796875	-360.3175659179688	1639.411987304688	-1265.639038085938	-329.7810363769532	1605.565673828125	-1242.442993164063	-351.1588745117188	1575.731323242188	-1291.42578125	-340.0009155273438	1517.8349609375	-1300.2392578125	-420.1026306152345	1507.617919921875	-1279.948852539063	-338.8058776855469	1270.512573242188	-1154.026000976563	-284.5209350585938	1261.82421875	-1195.743286132813	-293.3038024902344	1284.549194335938	-1103.503662109375	-423.7568359375001	1790.0048828125	-753.5145263671876	-449.6302185058595	1605.281616210938	-617.9822387695314	-412.204559326172	1573.057861328125	-628.2728881835939	-445.3234252929689	1540.640747070313	-590.5506591796876	-432.6034240722657	1478.646728515625	-581.2879638671876	-507.255340576172	1463.65869140625	-623.5922851562501	-388.1338500976564	1239.975830078125	-730.4123535156251	-355.2540588378907	1223.37060546875	-668.0010375976564	-318.6491699218751	1257.676391601563	-754.8583374023439	-267.2955322265626	1298.543090820313	-1048.234008789063	-271.6746520996094	1278.711669921875	-831.5687255859377	-431.1996459960939	1358.701049804688	-941.9061279296877	-436.784881591797	1327.151611328125	-969.1142578125002	-405.5694885253907	1075.157104492188	-1139.672485351563	-382.6397399902344	994.1931762695315	-1150.803833007813	-335.3200378417969	989.7313232421877	-1147.59912109375	-416.3038024902345	944.3110351562502	-1139.429809570313	-416.5223693847657	783.1894531250002	-1143.222534179688	-397.6665649414064	762.2482299804689	-1023.528442382813	-409.0708618164064	598.1214599609376	-1097.080688476563	-447.4810791015626	565.2990112304689	-1169.146606445313	-413.418914794922	555.2476806640626	-1137.937377929688	-437.2787475585939	476.7670288085939	-1116.844116210938	-510.3942260742189	368.3700256347657	-1172.043334960938	-479.3746643066407	364.5529785156251	-1090.621826171875	-572.7827758789064	345.0116271972657	-1121.65380859375	-373.5108947753907	265.9724731445313	-1113.678466796875	-373.2235412597657	269.9354553222657	-1160.533447265625	-420.2947387695314	258.8822021484376	-1201.751342773438	-402.7799682617189	1022.010070800781	-753.6582031250001	-368.2834472656251	963.9234619140627	-749.3893432617189	-335.8627014160157	961.707702636719	-754.2605590820314	-400.7282104492189	887.211608886719	-766.2656250000001	-414.9066467285157	773.789001464844	-772.5766601562502	-411.5954589843751	763.7752685546876	-897.0466308593752	-386.420867919922	640.6994628906251	-790.219909667969	-470.4213867187501	580.9000854492189	-749.6851806640626	-428.8577270507814	568.7601928710939	-761.6225585937501	-421.9677734375001	515.5758666992189	-783.5393676757815	-508.5838012695314	368.5209960937501	-770.3858642578127	-480.3583984375001	370.0585327148438	-850.3422851562502	-569.5363769531251	351.6791992187501	-821.2039794921877	-376.1477355957032	263.8073120117188	-828.8113403320315	-374.0693054199219	258.3168945312501	-793.6152343750002	-420.4920043945314	248.8675384521485	-745.8206787109376	-437.9846191406251	1330.63134765625	-911.9064941406252	nan	nan	nan	
